<?xml version="1.0" encoding="UTF-8"?>
<svg width="48" height="48" viewBox="0 0 48 48" xmlns="http://www.w3.org/2000/svg">
  <!-- Standard folder icon with Ghost Protocol colors -->
  <path d="M 6 12 L 6 38 C 6 39.1 6.9 40 8 40 L 40 40 C 41.1 40 42 39.1 42 38 L 42 16 C 42 14.9 41.1 14 40 14 L 20 14 L 16 10 L 8 10 C 6.9 10 6 10.9 6 12 Z" 
        fill="#1A1A2E" 
        stroke="#00F0FF" 
        stroke-width="1.5"/>
  
  <!-- Folder tab highlight -->
  <path d="M 6 12 L 6 16 L 42 16 L 42 14 L 20 14 L 16 10 L 8 10 C 6.9 10 6 10.9 6 12 Z" 
        fill="#00F0FF" 
        fill-opacity="0.2"/>
</svg>
